<svg xmlns:xlink="http://www.w3.org/1999/xlink" xmlns="http://www.w3.org/2000/svg" width="344.9255859375" height="128.61717170351906" viewBox="0 0 250 93.22095616213892" class="looka-1j8o68f"><defs id="SvgjsDefs1033"></defs><g id="SvgjsG1034" featurekey="Qg0WB5-0" transform="matrix(4.3398944746605945,0,0,4.3398944746605945,-5.207874611246482,-15.319814954848832)" fill="#FFFFFF"><path d="M4.75 19.23 q-0.09 0.19 -0.15 0.335 t-0.135 0.24 t-0.185 0.145 t-0.3 0.05 l-1.98 0 q-0.8 0 -0.8 -0.77 l0 -14.94 q0 -0.17 0.065 -0.31 t0.17 -0.24 t0.24 -0.155 t0.265 -0.055 l2.27 0 q0.38 0 0.6 0.22 t0.22 0.54 l0 4.56 q0.28 -0.3 0.6 -0.61 t0.695 -0.565 t0.825 -0.415 t1 -0.16 q1.36 0 2.505 0.505 t1.97 1.39 t1.29 2.08 t0.465 2.585 q0 1.38 -0.465 2.58 t-1.29 2.085 t-1.97 1.395 t-2.505 0.51 q-0.51 0 -0.96 -0.175 t-0.84 -0.445 t-0.72 -0.58 t-0.6 -0.58 z M10.78 13.66 q0 -0.64 -0.205 -1.22 t-0.585 -1.02 t-0.91 -0.695 t-1.19 -0.255 t-1.235 0.255 t-0.995 0.695 t-0.665 1.02 t-0.245 1.22 l0 0.14 q0.03 0.63 0.285 1.18 t0.675 0.955 t0.98 0.635 t1.2 0.23 q0.66 0 1.19 -0.245 t0.91 -0.665 t0.585 -0.995 t0.205 -1.235 z M16.400000000000002 4.289999999999999 q0 -0.32 0.16 -0.54 t0.55 -0.22 l2.45 0 q0.1 0 0.21 0.055 t0.205 0.155 t0.16 0.24 t0.065 0.31 l0 14.94 q0 0.38 -0.215 0.575 t-0.555 0.195 l-2.32 0 q-0.39 0 -0.55 -0.195 t-0.16 -0.575 l0 -14.94 z M21.830000000000002 8.26 q-0.16 -0.4 -0.005 -0.685 t0.685 -0.285 l2.47 0 q0.25 0 0.41 0.155 t0.24 0.385 l2.83 8.05 l2.77 -8.05 q0.11 -0.32 0.28 -0.43 t0.47 -0.11 l2.57 0 q0.28 0 0.44 0.075 t0.225 0.2 t0.045 0.28 t-0.08 0.305 q-0.38 0.94 -0.83 2.055 t-0.935 2.32 t-0.985 2.45 t-0.975 2.445 t-0.915 2.305 t-0.805 2.03 t-0.635 1.625 t-0.41 1.08 l0.03 -0.05 q-0.07 0.27 -0.25 0.435 t-0.44 0.165 l-2.31 0 q-0.45 0 -0.615 -0.175 t-0.165 -0.515 q0 -0.13 0.035 -0.2 t0.055 -0.09 l1.57 -4.08 z M36.67 8.03 q0 -0.35 0.215 -0.565 t0.585 -0.215 l8.42 0 q0.32 0 0.565 0.195 t0.245 0.585 l0 1.74 q0 0.09 -0.015 0.21 t-0.105 0.24 l-5.51 6.54 l4.94 0 q0.36 0 0.575 0.195 t0.215 0.615 l0 1.57 q0 0.15 -0.055 0.305 t-0.16 0.28 t-0.25 0.2 t-0.325 0.075 l-8.82 0 q-0.16 0 -0.305 -0.075 t-0.26 -0.195 t-0.18 -0.275 t-0.065 -0.315 l0 -1.38 q0 -0.14 0.025 -0.27 t0.145 -0.27 q0.67 -0.74 1.405 -1.605 t1.485 -1.755 t1.49 -1.76 t1.41 -1.62 l-4.87 0 q-0.37 0 -0.585 -0.2 t-0.215 -0.63 l0 -1.62 z M48.800000000000004 8.04 q0 -0.17 0.075 -0.325 t0.185 -0.245 q0.26 -0.17 0.54 -0.17 l1.51 0 q0.19 0 0.3 0.07 t0.185 0.18 t0.13 0.25 t0.135 0.28 q0.02 0.04 0.08 0.195 t0.13 0.34 t0.135 0.35 t0.085 0.215 q0.3 -0.33 0.575 -0.695 t0.585 -0.675 t0.69 -0.51 t0.9 -0.2 q0.54 0 0.965 0.08 t0.805 0.235 t0.755 0.395 t0.815 0.56 q0.69 0.37 0.26 1.1 l-0.91 1.55 q-0.2 0.3 -0.49 0.37 t-0.63 -0.09 q-0.43 -0.42 -0.875 -0.625 t-1.015 -0.205 q-0.39 0 -0.685 0.11 t-0.535 0.31 t-0.45 0.48 t-0.42 0.62 l0 7.24 q0 0.38 -0.185 0.575 t-0.615 0.195 l-2.25 0 q-0.78 0 -0.78 -0.77 l0 -11.19 z" fill="#FFFFFF"></path></g></svg>